<svg width="16" height="17" viewBox="0 0 16 17" fill="none" xmlns="http://www.w3.org/2000/svg">
<g clip-path="url(#clip0_4_229)">
<path d="M15 12.5C14.1244 12.5 14.0231 11.5 12.6719 11.5C11.3147 11.5 11.2086 12.5 10.3359 12.5C9.47047 12.5 9.353 11.5 8 11.5C6.66119 11.5 6.52444 12.5 5.67188 12.5C4.79225 12.5 4.69681 11.5 3.33594 11.5C1.97509 11.5 1.87803 12.5 1 12.5V10C1 9.17188 1.67188 8.5 2.5 8.5H3V4H5V8.5H7V4H9V8.5H11V4H13V8.5H13.5C14.3281 8.5 15 9.17188 15 10V12.5ZM15 16.5H1V13.5C2.35487 13.5 2.46147 12.5 3.33594 12.5C4.20941 12.5 4.31259 13.5 5.67188 13.5C7.01072 13.5 7.14741 12.5 8 12.5C8.87962 12.5 8.97503 13.5 10.3359 13.5C11.6908 13.5 11.7974 12.5 12.6719 12.5C13.5309 12.5 13.6485 13.5 15 13.5V16.5ZM4 3.5C3.44531 3.5 3 3.05469 3 2.5C3 1.53125 4 1.78125 4 0.5C4.375 0.5 5 1.42188 5 2.25C5 3.07812 4.55469 3.5 4 3.5ZM8 3.5C7.44531 3.5 7 3.05469 7 2.5C7 1.53125 8 1.78125 8 0.5C8.375 0.5 9 1.42188 9 2.25C9 3.07812 8.55469 3.5 8 3.5ZM12 3.5C11.4453 3.5 11 3.05469 11 2.5C11 1.53125 12 1.78125 12 0.5C12.375 0.5 13 1.42188 13 2.25C13 3.07812 12.5547 3.5 12 3.5Z" fill="#DBDBE1"/>
</g>
<defs>
<clipPath id="clip0_4_229">
<rect width="16" height="16" fill="white" transform="translate(0 0.5)"/>
</clipPath>
</defs>
</svg>
