<svg width="22" height="22" viewBox="0 0 22 22" fill="none" xmlns="http://www.w3.org/2000/svg">
<path d="M18.4181 2.92188H15.9981V2.57812C15.9981 2.39579 15.9257 2.22092 15.7968 2.09199C15.6678 1.96306 15.493 1.89063 15.3106 1.89062C15.1283 1.89063 14.9534 1.96306 14.8245 2.09199C14.6956 2.22092 14.6231 2.39579 14.6231 2.57812V2.92188H7.37687V2.57812C7.37687 2.39579 7.30444 2.22092 7.17551 2.09199C7.04658 1.96306 6.87171 1.89063 6.68937 1.89062C6.50704 1.89063 6.33217 1.96306 6.20324 2.09199C6.07431 2.22092 6.00187 2.39579 6.00187 2.57812V2.92188H3.58188C2.8148 2.92369 2.07966 3.22922 1.53725 3.77162C0.994841 4.31403 0.689316 5.04917 0.6875 5.81625V17.875C0.689316 18.6421 0.994841 19.3772 1.53725 19.9196C2.07966 20.462 2.8148 20.7676 3.58188 20.7694H18.4181C19.1852 20.7676 19.9203 20.462 20.4628 19.9196C21.0052 19.3772 21.3107 18.6421 21.3125 17.875V5.81625C21.3107 5.04917 21.0052 4.31403 20.4628 3.77162C19.9203 3.22922 19.1852 2.92369 18.4181 2.92188ZM3.58188 4.29688H6.00187V4.64062C6.00187 4.82296 6.07431 4.99783 6.20324 5.12676C6.33217 5.25569 6.50704 5.32812 6.68937 5.32812C6.87171 5.32812 7.04658 5.25569 7.17551 5.12676C7.30444 4.99783 7.37687 4.82296 7.37687 4.64062V4.29688H14.6231V4.64062C14.6231 4.82296 14.6956 4.99783 14.8245 5.12676C14.9534 5.25569 15.1283 5.32812 15.3106 5.32812C15.493 5.32812 15.6678 5.25569 15.7968 5.12676C15.9257 4.99783 15.9981 4.82296 15.9981 4.64062V4.29688H18.4181C18.8211 4.29688 19.2075 4.45695 19.4925 4.74189C19.7774 5.02683 19.9375 5.41329 19.9375 5.81625V7.44562H2.0625V5.81625C2.0625 5.41329 2.22258 5.02683 2.50751 4.74189C2.79245 4.45695 3.17891 4.29688 3.58188 4.29688ZM18.4181 19.4219H3.58188C3.38001 19.4219 3.18017 19.3817 2.99401 19.3036C2.80786 19.2256 2.63913 19.1112 2.49767 18.9672C2.35622 18.8232 2.24488 18.6524 2.17017 18.4649C2.09545 18.2774 2.05885 18.0768 2.0625 17.875V8.82062H19.9375V17.875C19.9412 18.0768 19.9046 18.2774 19.8298 18.4649C19.7551 18.6524 19.6438 18.8232 19.5023 18.9672C19.3609 19.1112 19.1921 19.2256 19.006 19.3036C18.8198 19.3817 18.62 19.4219 18.4181 19.4219Z" fill="#8C8CA1"/>
</svg>
