<svg width="16" height="17" viewBox="0 0 16 17" fill="none" xmlns="http://www.w3.org/2000/svg">
<g clip-path="url(#clip0_4_231)">
<path d="M8.00001 0.5C9.10457 0.5 10 1.39544 10 2.5C10 3.60456 9.10457 4.5 8.00001 4.5C6.89545 4.5 6.00001 3.60456 6.00001 2.5C6.00001 1.39544 6.89545 0.5 8.00001 0.5ZM11.7276 11.5681L10.2276 5.56809C10.187 5.40583 10.0934 5.26178 9.96156 5.15885C9.82973 5.05591 9.66727 5 9.50001 5H9.14501C8.43529 5.32634 7.59532 5.34044 6.85501 5H6.50001C6.33275 5 6.1703 5.05591 6.03846 5.15885C5.90663 5.26178 5.81298 5.40583 5.77242 5.56809L4.27242 11.5681C4.15423 12.0408 4.51198 12.5 5.00001 12.5H6.75001V15.75C6.75001 16.1642 7.08579 16.5 7.50001 16.5H8.50001C8.91423 16.5 9.25001 16.1642 9.25001 15.75V12.5H11C11.4872 12.5 11.846 12.0415 11.7276 11.5681Z" fill="#DBDBE1"/>
</g>
<defs>
<clipPath id="clip0_4_231">
<rect width="16" height="16" fill="white" transform="translate(0 0.5)"/>
</clipPath>
</defs>
</svg>
