<svg width="16" height="17" viewBox="0 0 16 17" fill="none" xmlns="http://www.w3.org/2000/svg">
<path d="M15.6969 6.4625C15.8187 6.36563 16 6.45625 16 6.60938V13C16 13.8281 15.3281 14.5 14.5 14.5H1.5C0.671875 14.5 0 13.8281 0 13V6.6125C0 6.45625 0.178125 6.36875 0.303125 6.46562C1.00312 7.00937 1.93125 7.7 5.11875 10.0156C5.77813 10.4969 6.89062 11.5094 8 11.5031C9.11563 11.5125 10.25 10.4781 10.8844 10.0156C14.0719 7.7 14.9969 7.00625 15.6969 6.4625ZM8 10.5C8.725 10.5125 9.76875 9.5875 10.2937 9.20625C14.4406 6.19688 14.7562 5.93437 15.7125 5.18437C15.8937 5.04375 16 4.825 16 4.59375V4C16 3.17188 15.3281 2.5 14.5 2.5H1.5C0.671875 2.5 0 3.17188 0 4V4.59375C0 4.825 0.10625 5.04062 0.2875 5.18437C1.24375 5.93125 1.55938 6.19688 5.70625 9.20625C6.23125 9.5875 7.275 10.5125 8 10.5Z" fill="#DBDBE1"/>
</svg>
