<svg width="17" height="17" viewBox="0 0 17 17" fill="none" xmlns="http://www.w3.org/2000/svg">
<path fill-rule="evenodd" clip-rule="evenodd" d="M11.8749 9.63874L11.122 7.54195C11.0716 7.40302 11.144 7.25025 11.2826 7.20016C11.4212 7.15038 11.574 7.22251 11.6244 7.36144L12.1269 8.75874L12.6294 7.36144C12.6672 7.25513 12.768 7.18441 12.8798 7.18441C12.9932 7.18441 13.094 7.25513 13.1318 7.36144L13.6343 8.75874L14.1367 7.36144C14.1856 7.22251 14.3384 7.15038 14.4785 7.20016C14.6172 7.25025 14.6896 7.40302 14.6392 7.54195L13.8847 9.63874C13.8469 9.7449 13.7461 9.81562 13.6343 9.81562C13.5209 9.81562 13.42 9.7449 13.3823 9.63874L12.8798 8.24113L12.3773 9.63874C12.3395 9.7449 12.2387 9.81562 12.1269 9.81562C12.0135 9.81562 11.9127 9.7449 11.8749 9.63874ZM5.01676 15.2041C4.7285 14.7963 4.4686 14.3288 4.24022 13.8157C3.66373 13.9817 3.12346 14.1872 2.62886 14.4293C3.56449 15.2805 4.7033 15.9132 5.96185 16.2472C5.62791 15.9692 5.31131 15.6204 5.01676 15.2041ZM7.73227 16.4964C6.90847 16.3944 6.12564 15.8462 5.45307 14.8952C5.19949 14.5366 4.96792 14.1272 4.76315 13.6777C5.6909 13.4557 6.69424 13.3305 7.73227 13.3115V16.4964ZM10.5754 14.8952C10.829 14.5366 11.0605 14.1272 11.2653 13.6777C10.3297 13.4537 9.3153 13.3281 8.26625 13.3108V16.5C9.10108 16.4075 9.89493 15.8575 10.5754 14.8952ZM13.3996 14.4293C12.464 15.2805 11.3252 15.9132 10.0666 16.2472C10.4005 15.9692 10.7171 15.6204 11.0117 15.2041C11.2999 14.7963 11.5598 14.3288 11.7882 13.8157C12.3647 13.9817 12.905 14.1872 13.3996 14.4293ZM12.6246 10.9489C12.4844 11.7921 12.2686 12.5932 11.9914 13.3187C12.6435 13.5101 13.2531 13.7498 13.8044 14.0347C14.6329 13.1681 15.2693 12.1162 15.6457 10.9489H12.6246ZM8.26625 10.9489H12.0828C11.9442 11.7456 11.7378 12.499 11.4732 13.1791C10.473 12.9325 9.38778 12.7945 8.26628 12.7765V10.9489H8.26625ZM4.03548 13.3187C3.38495 13.5101 2.77537 13.7501 2.22408 14.0347C1.39557 13.1681 0.759224 12.1162 0.382743 10.9489H3.40383C3.54402 11.7921 3.75981 12.5932 4.03548 13.3187ZM7.73227 10.9489H3.94567C4.08429 11.7456 4.29063 12.499 4.55525 13.1791C5.54601 12.9345 6.62183 12.7969 7.73227 12.7769V10.9489ZM4.55525 3.82084C4.29063 4.50099 4.08429 5.25436 3.94567 6.05105H7.73227V4.22312C6.62183 4.20314 5.54601 4.06562 4.55525 3.82084ZM4.03548 3.68115C3.75984 4.40682 3.54405 5.20793 3.40386 6.05108H0.382743C0.759193 4.8836 1.39554 3.83189 2.22408 2.96541C2.77537 3.25017 3.38495 3.48991 4.03548 3.68115ZM4.24022 3.18465C4.46863 2.67114 4.72853 2.20365 5.01676 1.79587C5.31131 1.37956 5.62791 1.03097 5.96185 0.752824C4.70333 1.08676 3.56449 1.71948 2.62886 2.57068C3.12346 2.81277 3.66373 3.01848 4.24022 3.18465ZM7.73227 3.68854C6.69424 3.66963 5.69093 3.54425 4.76315 3.32233C4.96792 2.87278 5.19946 2.46343 5.45307 2.10476C6.12564 1.15385 6.90847 0.605531 7.73227 0.503631V3.68854ZM11.2653 3.32233C11.0605 2.87278 10.829 2.46343 10.5754 2.10476C9.89493 1.14252 9.10108 0.592477 8.26625 0.5V3.68932C9.3153 3.67186 10.3297 3.54629 11.2653 3.32233ZM11.7882 3.18465C11.5598 2.67114 11.2999 2.20365 11.0117 1.79587C10.7171 1.37956 10.4005 1.03097 10.0666 0.752824C11.3251 1.08676 12.464 1.71948 13.3996 2.57068C12.905 2.81277 12.3647 3.01848 11.7882 3.18465ZM11.9914 3.68115C12.2686 4.40682 12.4845 5.20793 12.6247 6.05108H15.6442C15.2693 4.8836 14.6329 3.83189 13.8044 2.96541C13.2531 3.25017 12.6435 3.48991 11.9914 3.68115ZM8.26625 6.05105V4.22343C9.38775 4.20546 10.473 4.06765 11.4732 3.82081C11.7378 4.50095 11.9442 5.25432 12.0828 6.05102L8.26625 6.05105ZM16.0285 8.49991C16.0285 7.84011 15.9482 7.199 15.7969 6.58535H12.3962C12.3962 6.58535 12.3962 6.58535 12.3947 6.58535H0.231536C0.0803303 7.19903 0 7.84011 0 8.49991C0 9.15989 0.0803303 9.80097 0.231536 10.4146H15.7969C15.9482 9.80097 16.0285 9.15989 16.0285 8.49991ZM9.77365 7.54192L9.01915 9.63874C8.98137 9.7449 8.88053 9.81562 8.76714 9.81562C8.65529 9.81562 8.55452 9.7449 8.5167 9.63874L8.01424 8.2411L7.51179 9.63871C7.47397 9.74487 7.37317 9.81559 7.26134 9.81559C7.14792 9.81559 7.04712 9.74487 7.00933 9.63871L6.25483 7.54192C6.20603 7.40299 6.27847 7.25022 6.41709 7.20013C6.55568 7.15035 6.70848 7.22248 6.75889 7.36141L7.26134 8.75871L7.76223 7.36141C7.80005 7.2551 7.90242 7.18438 8.01424 7.18438C8.12766 7.18438 8.2269 7.2551 8.26625 7.36141L8.76714 8.75871L9.2696 7.36141C9.32 7.22248 9.4728 7.15035 9.61139 7.20013C9.75161 7.25022 9.82249 7.40299 9.77365 7.54192ZM4.9065 7.54192L4.1536 9.63871C4.11578 9.74487 4.01498 9.81559 3.90156 9.81559C3.78974 9.81559 3.68893 9.74487 3.65111 9.63871L3.14866 8.2411L2.6462 9.63871C2.60842 9.74487 2.50758 9.81559 2.39419 9.81559C2.28237 9.81559 2.18156 9.74487 2.14375 9.63871L1.38925 7.54192C1.33885 7.40299 1.41129 7.25022 1.54991 7.20013C1.68853 7.15035 1.8429 7.22248 1.89171 7.36141L2.39416 8.75871L2.89662 7.36141C2.93443 7.2551 3.03524 7.18438 3.14863 7.18438C3.26048 7.18438 3.36129 7.2551 3.39907 7.36141L3.90153 8.75871L4.40401 7.36141C4.45442 7.22248 4.60719 7.15035 4.74581 7.20013C4.88446 7.25022 4.9569 7.40299 4.9065 7.54192Z" fill="#DBDBE1"/>
</svg>
